<svg version="1.1" id="Layer_1" xmlns="http://www.w3.org/2000/svg" xmlns:xlink="http://www.w3.org/1999/xlink" x="0px" y="0px"
	 width="100%" viewBox="0 0 160 160" enable-background="new 0 0 160 160" xml:space="preserve">
<path fill="#FFFFFF" opacity="1.000000" stroke="none" 
	d="
M86.000000,161.000000 
	C57.333336,161.000000 29.166674,161.000000 1.000008,161.000000 
	C1.000005,107.666679 1.000005,54.333351 1.000003,1.000022 
	C54.333317,1.000015 107.666634,1.000015 160.999969,1.000007 
	C160.999969,54.333313 160.999969,107.666626 160.999985,160.999969 
	C136.166672,161.000000 111.333336,161.000000 86.000000,161.000000 
M11.984099,95.825546 
	C11.319837,98.781960 10.164272,101.724915 10.082822,104.697304 
	C9.831858,113.855743 9.899147,123.026894 10.044547,132.189911 
	C10.091335,135.138489 10.764174,138.077133 10.957900,139.552612 
	C13.976784,139.820099 17.584040,139.653580 17.707457,140.231293 
	C18.393995,143.445038 20.566088,142.929001 22.679943,143.016464 
	C30.427721,143.336975 38.213032,143.323624 45.909206,144.141663 
	C52.391083,144.830612 52.693119,144.747101 53.130375,138.289139 
	C53.325977,135.400269 54.173988,132.076477 55.905327,129.879501 
	C58.718590,126.309631 60.149807,122.548294 61.097034,118.188599 
	C63.990479,104.871307 70.217239,94.107574 84.738380,89.643250 
	C86.257523,93.604279 87.520897,97.212662 89.025185,100.717651 
	C90.153549,103.346733 91.503227,105.892906 92.913185,108.386177 
	C94.935631,111.962540 98.132210,114.613548 98.198097,119.540413 
	C98.285934,126.108116 102.432915,131.385864 107.094215,135.646637 
	C108.706696,137.120560 112.141724,136.553452 114.723541,137.030731 
	C116.431480,137.346436 118.102531,137.861725 120.162384,138.381638 
	C119.732819,145.294144 119.311195,152.078857 118.890076,158.855469 
	C124.993378,158.855469 130.295425,158.855469 136.237823,158.855469 
	C134.273315,154.539001 137.678391,155.070694 139.827209,154.735977 
	C140.006485,152.954330 140.151520,151.512848 140.284256,150.193542 
	C141.867584,150.014481 143.174072,149.866745 144.480576,149.718994 
	C144.463608,149.460953 144.446640,149.202911 144.429672,148.944870 
	C142.784882,148.944870 141.140106,148.944870 139.459427,148.944870 
	C141.112259,147.367172 142.537552,146.006668 143.962830,144.646164 
	C143.776657,144.396347 143.590469,144.146545 143.404282,143.896744 
	C141.136047,144.279404 138.867798,144.662064 136.599548,145.044724 
	C136.560272,144.851273 136.521011,144.657822 136.481735,144.464371 
	C141.622650,141.413010 146.763565,138.361649 152.436752,134.994354 
	C152.843430,137.225174 153.068222,138.458206 153.345123,139.977127 
	C154.655746,138.054184 156.840164,136.329330 156.841644,134.602631 
	C156.850067,124.693504 156.967072,114.702087 155.688629,104.916084 
	C155.199234,101.170128 156.242081,96.677925 151.284821,92.943359 
	C146.686737,89.479393 144.109177,82.440971 142.263901,76.474808 
	C140.535858,70.887611 138.984818,68.681305 133.134674,67.838417 
	C129.467346,67.310020 124.925049,68.405602 122.445488,63.942375 
	C117.093086,54.308025 117.034798,54.340408 106.855721,57.129581 
	C103.334496,39.684982 99.825996,22.303463 96.217728,4.427650 
	C92.561562,5.046127 89.787895,5.272028 87.185455,6.062011 
	C85.953110,6.436096 84.116463,7.916505 84.144157,8.848412 
	C84.343582,15.558839 84.857758,22.265835 85.481255,28.954420 
	C85.690666,31.200945 86.507660,33.390831 87.134094,35.964684 
	C84.724197,35.008137 82.966797,34.180355 81.130592,33.603390 
	C71.004761,30.421663 61.372345,25.219429 50.105682,26.899755 
	C45.326031,27.612600 42.917606,30.297092 44.451134,34.912254 
	C45.861584,39.157009 47.708588,43.262024 48.995556,47.539242 
	C49.381977,48.823494 48.875614,51.576118 48.198765,51.785835 
	C43.806293,53.146835 39.202305,53.812714 34.777615,55.087994 
	C32.845020,55.645004 30.898386,56.822166 29.454765,58.227772 
	C27.857944,59.782532 26.832624,61.923195 25.552748,63.804844 
	C24.359819,65.558655 22.702419,67.151703 22.043404,69.086006 
	C19.518639,76.496536 17.398266,84.044350 14.912344,91.469055 
	C14.455263,92.834229 12.999516,93.865028 11.984099,95.825546 
z"/>
<path fill="#040404" opacity="1.000000" stroke="none" 
	d="
M11.994415,95.437851 
	C12.999516,93.865028 14.455263,92.834229 14.912344,91.469055 
	C17.398266,84.044350 19.518639,76.496536 22.043404,69.086006 
	C22.702419,67.151703 24.359819,65.558655 25.552748,63.804844 
	C26.832624,61.923195 27.857944,59.782532 29.454765,58.227772 
	C30.898386,56.822166 32.845020,55.645004 34.777615,55.087994 
	C39.202305,53.812714 43.806293,53.146835 48.198765,51.785835 
	C48.875614,51.576118 49.381977,48.823494 48.995556,47.539242 
	C47.708588,43.262024 45.861584,39.157009 44.451134,34.912254 
	C42.917606,30.297092 45.326031,27.612600 50.105682,26.899755 
	C61.372345,25.219429 71.004761,30.421663 81.130592,33.603390 
	C82.966797,34.180355 84.724197,35.008137 87.134094,35.964684 
	C86.507660,33.390831 85.690666,31.200945 85.481255,28.954420 
	C84.857758,22.265835 84.343582,15.558839 84.144157,8.848412 
	C84.116463,7.916505 85.953110,6.436096 87.185455,6.062011 
	C89.787895,5.272028 92.561562,5.046127 96.217728,4.427650 
	C99.825996,22.303463 103.334496,39.684982 106.855721,57.129581 
	C117.034798,54.340408 117.093086,54.308025 122.445488,63.942375 
	C124.925049,68.405602 129.467346,67.310020 133.134674,67.838417 
	C138.984818,68.681305 140.535858,70.887611 142.263901,76.474808 
	C144.109177,82.440971 146.686737,89.479393 151.284821,92.943359 
	C156.242081,96.677925 155.199234,101.170128 155.688629,104.916084 
	C156.967072,114.702087 156.850067,124.693504 156.841644,134.602631 
	C156.840164,136.329330 154.655746,138.054184 153.345123,139.977127 
	C153.068222,138.458206 152.843430,137.225174 152.436752,134.994354 
	C146.763565,138.361649 141.622650,141.413010 136.481735,144.464371 
	C136.521011,144.657822 136.560272,144.851273 136.599548,145.044724 
	C138.867798,144.662064 141.136047,144.279404 143.404282,143.896744 
	C143.590469,144.146545 143.776657,144.396347 143.962830,144.646164 
	C142.537552,146.006668 141.112259,147.367172 139.459427,148.944870 
	C141.140106,148.944870 142.784882,148.944870 144.429672,148.944870 
	C144.446640,149.202911 144.463608,149.460953 144.480576,149.718994 
	C143.174072,149.866745 141.867584,150.014481 140.284256,150.193542 
	C140.151520,151.512848 140.006485,152.954330 139.827209,154.735977 
	C137.678391,155.070694 134.273315,154.539001 136.237823,158.855469 
	C130.295425,158.855469 124.993378,158.855469 118.890076,158.855469 
	C119.311195,152.078857 119.732819,145.294144 120.162384,138.381638 
	C118.102531,137.861725 116.431480,137.346436 114.723541,137.030731 
	C112.141724,136.553452 108.706696,137.120560 107.094215,135.646637 
	C102.432915,131.385864 98.285934,126.108116 98.198097,119.540413 
	C98.132210,114.613548 94.935631,111.962540 92.913185,108.386177 
	C91.503227,105.892906 90.153549,103.346733 89.025185,100.717651 
	C87.520897,97.212662 86.257523,93.604279 84.738380,89.643250 
	C70.217239,94.107574 63.990479,104.871307 61.097034,118.188599 
	C60.149807,122.548294 58.718590,126.309631 55.905327,129.879501 
	C54.173988,132.076477 53.325977,135.400269 53.130375,138.289139 
	C52.693119,144.747101 52.391083,144.830612 45.909206,144.141663 
	C38.213032,143.323624 30.427721,143.336975 22.679943,143.016464 
	C20.566088,142.929001 18.393995,143.445038 17.707457,140.231293 
	C17.584040,139.653580 13.976784,139.820099 10.957900,139.552612 
	C10.764174,138.077133 10.091335,135.138489 10.044547,132.189911 
	C9.899147,123.026894 9.831858,113.855743 10.082822,104.697304 
	C10.164272,101.724915 11.319837,98.781960 11.994415,95.437851 
M76.150467,69.214302 
	C75.767838,69.146759 75.385201,69.079216 74.408035,68.992004 
	C73.916817,69.252747 73.425598,69.513489 72.177696,69.893387 
	C68.734238,71.038467 65.202972,71.981468 61.887878,73.421982 
	C60.436882,74.052475 58.677452,75.528564 58.360558,76.917778 
	C57.461555,80.858894 54.770607,81.632820 50.720055,82.183876 
	C51.100674,78.112434 51.448631,74.390366 51.824745,70.367119 
	C59.627014,67.892845 56.518520,59.893265 58.727974,54.087200 
	C54.630890,55.359879 51.058350,57.286613 47.307774,58.760227 
	C43.907841,60.096077 40.253590,60.779037 36.834713,62.074989 
	C35.438381,62.604275 34.123913,63.807671 33.207012,65.030434 
	C31.995403,66.646217 31.194353,68.573616 30.246513,70.382622 
	C28.523159,73.671745 26.369169,76.820587 25.202684,80.298882 
	C22.548283,88.213943 20.932487,96.514824 17.820337,104.225304 
	C15.844388,109.120804 15.200640,113.540787 16.591532,118.407997 
	C18.986450,119.110283 21.272320,119.780594 24.748695,120.800003 
	C21.041069,121.025101 18.629242,121.171532 16.224777,121.317513 
	C15.962858,123.787346 15.741803,125.871834 15.483211,128.310287 
	C21.747074,130.375427 27.830791,132.381180 34.443581,134.848480 
	C38.162197,136.063919 41.880814,137.279358 46.062019,138.645996 
	C45.947418,136.205917 45.857193,134.284836 45.786129,132.771774 
	C42.140533,131.364578 39.039028,130.167404 36.791039,128.787903 
	C39.673088,129.169189 42.555138,129.550476 46.117100,130.021713 
	C45.504028,124.889923 44.954269,120.288109 44.375851,115.446388 
	C44.875481,114.988731 45.851742,114.369095 46.459393,113.493622 
	C50.630917,107.483551 53.172016,99.978539 61.259315,97.603546 
	C61.516594,97.527992 61.757500,97.148178 61.867714,96.857712 
	C63.454773,92.674957 64.305977,87.812454 70.431900,87.952301 
	C70.717888,87.958832 70.980682,87.178940 71.322571,86.832741 
	C73.552086,84.575096 75.800476,82.336090 78.667282,79.885117 
	C78.455742,78.954140 78.244202,78.023163 78.804047,77.075890 
	C79.996185,75.122276 81.522751,73.122261 78.082298,71.141617 
	C77.442200,70.744850 76.802094,70.348083 76.150467,69.214302 
M102.031395,102.482063 
	C102.015945,102.652458 102.000504,102.822853 101.265434,103.182709 
	C97.321060,105.440170 97.237648,107.004936 99.614197,110.238937 
	C101.860634,113.295868 104.747772,113.858788 107.787758,114.733429 
	C106.241920,115.442505 104.696075,116.151581 103.203629,116.836166 
	C103.021263,122.636803 107.760223,129.647903 112.834084,130.816589 
	C115.958786,131.536316 119.775139,133.533539 120.827232,128.704803 
	C119.356880,126.549866 118.129242,124.750641 117.453911,122.305130 
	C120.794685,124.589104 125.473892,126.189735 127.089630,129.354431 
	C128.622711,132.357224 126.947990,136.997757 126.676727,141.024277 
	C127.187935,140.954163 127.967232,140.847275 129.362015,141.191223 
	C129.582932,141.317169 129.803864,141.443115 129.544373,142.091980 
	C127.668938,143.793030 125.793495,145.494080 123.918053,147.195145 
	C124.194878,147.542114 124.471695,147.889084 124.748520,148.236053 
	C132.768127,143.521576 140.834396,138.882721 148.749619,133.999084 
	C149.765869,133.372055 150.630325,131.378723 150.452423,130.184021 
	C150.141006,128.092773 148.966446,126.130043 148.189987,124.203941 
	C148.447662,122.185165 149.007416,119.851883 148.997284,117.521072 
	C148.955093,107.828239 147.888077,98.585999 141.158264,90.585152 
	C138.459747,87.376945 137.240097,82.630928 136.265625,78.374626 
	C135.663315,75.743919 134.604599,74.432732 132.310608,74.350647 
	C123.708221,74.042831 117.267532,70.340988 113.089157,62.769966 
	C112.954414,62.525818 112.562553,62.423569 112.266701,62.240406 
	C108.888336,64.070183 104.289680,64.830757 104.392128,69.971382 
	C100.206337,50.861095 96.020538,31.750807 91.618164,11.651733 
	C89.950043,13.022552 88.176170,13.827530 88.198601,14.578899 
	C88.280083,17.309484 88.740761,20.083103 89.466644,22.728479 
	C90.858658,27.801455 92.762047,32.739769 94.036575,37.838120 
	C96.601013,48.096275 98.813293,58.442394 101.369148,68.702835 
	C101.728035,70.143562 101.834724,74.711090 105.847000,70.155746 
	C106.758324,71.295509 107.669647,72.435265 108.337250,73.270218 
	C105.545990,74.113632 102.274757,75.102089 98.390335,75.434494 
	C99.089363,73.883934 99.788399,72.333374 100.872185,69.929375 
	C92.075119,72.757927 88.576706,80.502060 91.819435,87.864708 
	C93.178993,87.529602 94.575645,87.185349 96.692543,87.426559 
	C95.506889,88.437210 94.321243,89.447861 93.145897,90.449730 
	C93.986244,94.254578 94.821594,98.036758 95.700096,102.014351 
	C97.356300,101.938019 98.949486,101.864586 101.032585,101.768578 
	C101.032585,98.685555 101.040550,95.899345 101.030563,93.113197 
	C101.018120,89.639740 99.180817,87.676704 95.830032,86.160599 
	C95.987122,83.975952 96.333992,81.784370 96.254478,79.608368 
	C96.149117,76.724586 96.005920,76.729820 99.022041,76.813751 
	C99.353165,79.885231 99.418015,83.018272 100.109009,86.006538 
	C100.569725,87.998993 101.799080,89.862320 102.910233,91.642487 
	C104.089729,93.532158 105.536064,95.255264 106.773361,97.508759 
	C106.550163,97.732491 106.292122,97.903687 105.247063,97.899849 
	C104.229454,99.265007 103.211853,100.630165 102.031395,102.482063 
M66.652054,34.286499 
	C60.746750,30.191856 55.476421,34.253590 49.906898,35.131687 
	C51.804081,43.620029 58.123848,46.617805 65.207016,49.545311 
	C65.148674,49.730629 65.090340,49.915947 64.261765,50.195736 
	C61.821854,57.458149 59.381947,64.720558 56.409584,72.169998 
	C56.948135,72.116501 57.486683,72.063011 58.763103,71.862579 
	C62.687061,71.133476 66.118004,69.729988 66.800056,65.187950 
	C67.291618,61.914455 70.859581,59.064770 68.940765,55.345005 
	C69.362770,54.820751 70.083832,53.924992 70.843613,52.353062 
	C70.859726,52.127880 70.875839,51.902699 71.594620,51.953747 
	C74.078194,53.026119 76.561760,54.098488 79.458206,55.349129 
	C80.969307,52.330849 82.297905,49.677113 83.514450,46.331085 
	C83.339241,45.272472 83.164032,44.213863 82.901863,42.428791 
	C78.287277,40.220535 73.672699,38.012280 68.764320,35.289730 
	C68.194527,35.147820 67.624741,35.005909 66.652054,34.286499 
M49.300877,112.988266 
	C48.835735,116.639114 48.282200,120.282944 47.990849,123.947609 
	C47.941216,124.571884 48.901035,125.534378 49.614037,125.860123 
	C50.012501,126.042175 51.296612,125.361809 51.443596,124.855705 
	C53.423958,118.036789 55.274326,111.180122 57.156910,104.332809 
	C56.715431,104.105133 56.273949,103.877449 55.832470,103.649773 
	C53.803482,106.561829 51.774498,109.473885 49.300877,112.988266 
M74.444366,66.701050 
	C74.755539,64.184914 75.066711,61.668774 75.377884,59.152637 
	C74.572319,58.879574 73.766762,58.606514 72.961197,58.333450 
	C71.257843,61.471630 69.554489,64.609810 67.851135,67.747993 
	C68.245636,68.151299 68.640137,68.554604 69.034637,68.957909 
	C70.596649,68.290977 72.158653,67.624046 74.444366,66.701050 
M19.426004,133.027527 
	C14.235179,131.451920 14.235179,131.451920 13.826272,135.671692 
	C16.519257,135.978943 19.212172,136.286194 21.905085,136.593445 
	C22.107742,136.282715 22.310398,135.972000 22.513054,135.661270 
	C21.746466,134.842545 20.979876,134.023819 19.426004,133.027527 
z"/>
<path fill="#F9F9F9" opacity="1.000000" stroke="none" 
	d="
M78.042694,80.090988 
	C75.800476,82.336090 73.552086,84.575096 71.322571,86.832741 
	C70.980682,87.178940 70.717888,87.958832 70.431900,87.952301 
	C64.305977,87.812454 63.454773,92.674957 61.867714,96.857712 
	C61.757500,97.148178 61.516594,97.527992 61.259315,97.603546 
	C53.172016,99.978539 50.630917,107.483551 46.459393,113.493622 
	C45.851742,114.369095 44.875481,114.988731 44.375851,115.446388 
	C44.954269,120.288109 45.504028,124.889923 46.117100,130.021713 
	C42.555138,129.550476 39.673088,129.169189 36.094666,128.683456 
	C34.538593,128.057877 33.678894,127.536736 32.933006,127.084587 
	C33.316719,129.939407 33.615612,132.163162 33.914509,134.386932 
	C27.830791,132.381180 21.747074,130.375427 15.483211,128.310287 
	C15.741803,125.871834 15.962858,123.787346 16.224777,121.317513 
	C18.629242,121.171532 21.041069,121.025101 24.748695,120.800003 
	C21.272320,119.780594 18.986450,119.110283 16.591532,118.407997 
	C15.200640,113.540787 15.844388,109.120804 17.820337,104.225304 
	C20.932487,96.514824 22.548283,88.213943 25.202684,80.298882 
	C26.369169,76.820587 28.523159,73.671745 30.246513,70.382622 
	C31.194353,68.573616 31.995403,66.646217 33.207012,65.030434 
	C34.123913,63.807671 35.438381,62.604275 36.834713,62.074989 
	C40.253590,60.779037 43.907841,60.096077 47.307774,58.760227 
	C51.058350,57.286613 54.630890,55.359879 58.727974,54.087200 
	C56.518520,59.893265 59.627014,67.892845 51.824745,70.367119 
	C51.448631,74.390366 51.100674,78.112434 50.720055,82.183876 
	C54.770607,81.632820 57.461555,80.858894 58.360558,76.917778 
	C58.677452,75.528564 60.436882,74.052475 61.887878,73.421982 
	C65.202972,71.981468 68.734238,71.038467 72.558578,70.178635 
	C72.392517,71.707703 71.845566,72.951523 71.116386,74.609726 
	C73.794327,73.533112 75.934021,72.672882 78.073723,71.812653 
	C81.522751,73.122261 79.996185,75.122276 78.386810,76.786324 
	C77.352234,76.791451 76.734886,77.086143 76.117531,77.380829 
	C76.759254,78.284210 77.400978,79.187599 78.042694,80.090988 
M74.405128,78.073311 
	C73.599098,77.730530 72.793076,77.387756 71.987053,77.044975 
	C71.935455,77.584312 71.883858,78.123650 71.832260,78.662987 
	C72.790329,78.662987 73.748405,78.662987 74.405128,78.073311 
z"/>
<path fill="#F7F7F7" opacity="1.000000" stroke="none" 
	d="
M99.003525,76.090538 
	C102.274757,75.102089 105.545990,74.113632 108.337250,73.270218 
	C107.669647,72.435265 106.758324,71.295509 105.476562,70.249733 
	C105.106133,70.343719 105.176987,70.389664 105.176987,70.389664 
	C104.289680,64.830757 108.888336,64.070183 112.266701,62.240406 
	C112.562553,62.423569 112.954414,62.525818 113.089157,62.769966 
	C117.267532,70.340988 123.708221,74.042831 132.310608,74.350647 
	C134.604599,74.432732 135.663315,75.743919 136.265625,78.374626 
	C137.240097,82.630928 138.459747,87.376945 141.158264,90.585152 
	C147.888077,98.585999 148.955093,107.828239 148.997284,117.521072 
	C149.007416,119.851883 148.447662,122.185165 148.189987,124.203941 
	C148.966446,126.130043 150.141006,128.092773 150.452423,130.184021 
	C150.630325,131.378723 149.765869,133.372055 148.749619,133.999084 
	C140.834396,138.882721 132.768127,143.521576 124.748520,148.236053 
	C124.471695,147.889084 124.194878,147.542114 123.918053,147.195145 
	C125.793495,145.494080 127.668938,143.793030 130.043579,141.692795 
	C130.562134,140.912643 130.581497,140.531693 130.600861,140.150726 
	C129.982758,140.347275 129.364639,140.543839 128.746536,140.740402 
	C127.967232,140.847275 127.187935,140.954163 126.676727,141.024277 
	C126.947990,136.997757 128.622711,132.357224 127.089630,129.354431 
	C125.473892,126.189735 120.794685,124.589104 117.201492,122.663422 
	C116.949081,123.021713 117.030777,123.044571 117.391090,122.783142 
	C114.229034,118.343483 112.769150,113.587639 113.593895,108.065941 
	C115.052528,108.396492 116.372826,108.695702 117.693130,108.994911 
	C117.830498,108.755852 117.967873,108.516785 118.105240,108.277725 
	C116.401566,106.857056 114.697891,105.436378 112.953613,103.679047 
	C112.313065,102.952332 111.713127,102.562286 111.113182,102.172241 
	C110.892723,102.537773 110.672272,102.903305 110.451820,103.268837 
	C111.020981,103.531685 111.590141,103.794525 112.133591,104.407578 
	C109.881271,107.604042 109.473808,107.556183 107.923615,103.916000 
	C108.610664,102.192871 109.257408,100.815361 110.222496,98.759789 
	C109.748711,98.518608 108.307297,97.784859 106.865875,97.051102 
	C105.536064,95.255264 104.089729,93.532158 102.910233,91.642487 
	C101.799080,89.862320 100.569725,87.998993 100.109009,86.006538 
	C99.418015,83.018272 99.353165,79.885231 99.000641,76.414291 
	C98.979233,76.014832 99.003525,76.090538 99.003525,76.090538 
M119.503372,90.870773 
	C124.903137,94.188004 124.903137,94.188004 127.994461,92.914436 
	C124.829163,90.359497 121.064667,87.320908 117.282669,84.268188 
	C117.625153,85.894707 117.989967,87.708542 118.403587,89.511177 
	C118.472015,89.809395 118.753807,90.058662 119.503372,90.870773 
z"/>
<path fill="#F9F9F9" opacity="1.000000" stroke="none" 
	d="
M83.626503,47.023376 
	C82.297905,49.677113 80.969307,52.330849 79.458206,55.349129 
	C76.561760,54.098488 74.078194,53.026119 71.095459,51.594303 
	C70.190422,51.528614 69.784546,51.822365 69.378677,52.116119 
	C69.854080,52.420490 70.329483,52.724861 70.804886,53.029232 
	C70.083832,53.924992 69.362770,54.820751 68.940765,55.345005 
	C70.859581,59.064770 67.291618,61.914455 66.800056,65.187950 
	C66.118004,69.729988 62.687061,71.133476 58.123474,71.925179 
	C57.303242,71.986176 57.122639,71.984573 56.942036,71.982971 
	C59.381947,64.720558 61.821854,57.458149 64.791183,50.403103 
	C66.073708,50.872452 66.826805,51.134430 67.579910,51.396412 
	C67.715027,51.055920 67.850143,50.715431 67.985260,50.374939 
	C66.987129,49.917965 65.989006,49.460991 64.990875,49.004017 
	C58.123848,46.617805 51.804081,43.620029 49.906898,35.131687 
	C55.476421,34.253590 60.746750,30.191856 66.845215,34.925758 
	C67.323914,36.205757 67.609459,36.846493 67.895004,37.487228 
	C68.282700,36.926159 68.670403,36.365089 69.058105,35.804016 
	C73.672699,38.012280 78.287277,40.220535 82.900414,43.042114 
	C80.618439,45.323112 80.899361,46.437458 83.626503,47.023376 
M76.260521,43.657108 
	C76.298126,43.263329 76.413795,42.537693 76.361649,42.525425 
	C75.546852,42.333736 74.710373,42.234180 73.878899,42.113384 
	C73.820381,42.301659 73.761864,42.489937 73.703354,42.678215 
	C74.355209,43.023655 75.007072,43.369095 76.260521,43.657108 
M64.797302,56.390770 
	C64.793037,56.784870 64.788780,57.178970 64.784523,57.573071 
	C64.948013,57.574528 65.253586,57.586979 65.254448,57.575848 
	C65.284805,57.183670 65.286545,56.789280 64.797302,56.390770 
M78.203270,44.198021 
	C78.398521,44.132236 78.593773,44.066448 78.789024,44.000664 
	C78.592682,43.938309 78.396332,43.875957 78.203270,44.198021 
z"/>
<path fill="#E7E7E7" opacity="1.000000" stroke="none" 
	d="
M105.105103,70.301506 
	C101.834724,74.711090 101.728035,70.143562 101.369148,68.702835 
	C98.813293,58.442394 96.601013,48.096275 94.036575,37.838120 
	C92.762047,32.739769 90.858658,27.801455 89.466644,22.728479 
	C88.740761,20.083103 88.280083,17.309484 88.198601,14.578899 
	C88.176170,13.827530 89.950043,13.022552 91.618164,11.651733 
	C96.020538,31.750807 100.206337,50.861095 104.784561,70.180527 
	C105.176987,70.389664 105.106133,70.343719 105.105103,70.301506 
z"/>
<path fill="#F4F4F4" opacity="1.000000" stroke="none" 
	d="
M116.925339,122.986565 
	C118.129242,124.750641 119.356880,126.549866 120.827232,128.704803 
	C119.775139,133.533539 115.958786,131.536316 112.834084,130.816589 
	C107.760223,129.647903 103.021263,122.636803 103.203629,116.836166 
	C104.696075,116.151581 106.241920,115.442505 107.883362,114.375732 
	C107.978966,114.018028 107.987396,114.087524 108.339188,113.951065 
	C109.192543,112.247070 109.694092,110.679543 110.408531,108.446655 
	C112.500443,114.027061 111.162498,120.187149 117.030777,123.044571 
	C117.030777,123.044571 116.949081,123.021713 116.925339,122.986565 
z"/>
<path fill="#E6E6E6" opacity="1.000000" stroke="none" 
	d="
M49.523193,112.687103 
	C51.774498,109.473885 53.803482,106.561829 55.832470,103.649773 
	C56.273949,103.877449 56.715431,104.105133 57.156910,104.332809 
	C55.274326,111.180122 53.423958,118.036789 51.443596,124.855705 
	C51.296612,125.361809 50.012501,126.042175 49.614037,125.860123 
	C48.901035,125.534378 47.941216,124.571884 47.990849,123.947609 
	C48.282200,120.282944 48.835735,116.639114 49.523193,112.687103 
z"/>
<path fill="#E7E7E7" opacity="1.000000" stroke="none" 
	d="
M99.016068,76.027344 
	C96.005920,76.729820 96.149117,76.724586 96.254478,79.608368 
	C96.333992,81.784370 95.987122,83.975952 95.882805,86.529556 
	C95.935577,86.898521 95.972298,86.841103 95.972298,86.841103 
	C94.575645,87.185349 93.178993,87.529602 91.819435,87.864708 
	C88.576706,80.502060 92.075119,72.757927 100.872185,69.929375 
	C99.788399,72.333374 99.089363,73.883934 98.696930,75.762512 
	C99.003525,76.090538 98.979233,76.014832 99.016068,76.027344 
z"/>
<path fill="#ECECEC" opacity="1.000000" stroke="none" 
	d="
M95.908279,86.918922 
	C99.180817,87.676704 101.018120,89.639740 101.030563,93.113197 
	C101.040550,95.899345 101.032585,98.685555 101.032585,101.768578 
	C98.949486,101.864586 97.356300,101.938019 95.700096,102.014351 
	C94.821594,98.036758 93.986244,94.254578 93.145897,90.449730 
	C94.321243,89.447861 95.506889,88.437210 96.332420,87.133835 
	C95.972298,86.841103 95.935577,86.898521 95.908279,86.918922 
z"/>
<path fill="#E4E4E4" opacity="1.000000" stroke="none" 
	d="
M34.179047,134.617706 
	C33.615612,132.163162 33.316719,129.939407 32.933006,127.084587 
	C33.678894,127.536736 34.538593,128.057877 35.667908,128.774628 
	C39.039028,130.167404 42.140533,131.364578 45.786129,132.771774 
	C45.857193,134.284836 45.947418,136.205917 46.062019,138.645996 
	C41.880814,137.279358 38.162197,136.063919 34.179047,134.617706 
z"/>
<path fill="#F1F1F1" opacity="1.000000" stroke="none" 
	d="
M108.013542,114.012604 
	C104.747772,113.858788 101.860634,113.295868 99.614197,110.238937 
	C97.237648,107.004936 97.321060,105.440170 101.922073,103.303787 
	C103.856926,103.999054 105.135139,104.573250 106.385727,105.519577 
	C106.901192,108.623642 107.444290,111.355583 107.987396,114.087524 
	C107.987396,114.087524 107.978966,114.018028 108.013542,114.012604 
z"/>
<path fill="#E9E9E9" opacity="1.000000" stroke="none" 
	d="
M74.082512,66.829086 
	C72.158653,67.624046 70.596649,68.290977 69.034637,68.957909 
	C68.640137,68.554604 68.245636,68.151299 67.851135,67.747993 
	C69.554489,64.609810 71.257843,61.471630 72.961197,58.333450 
	C73.766762,58.606514 74.572319,58.879574 75.377884,59.152637 
	C75.066711,61.668774 74.755539,64.184914 74.082512,66.829086 
z"/>
<path fill="#E4E4E4" opacity="1.000000" stroke="none" 
	d="
M19.819645,133.116302 
	C20.979876,134.023819 21.746466,134.842545 22.513054,135.661270 
	C22.310398,135.972000 22.107742,136.282715 21.905085,136.593445 
	C19.212172,136.286194 16.519257,135.978943 13.826272,135.671692 
	C14.235179,131.451920 14.235179,131.451920 19.819645,133.116302 
z"/>
<path fill="#EBEBEB" opacity="1.000000" stroke="none" 
	d="
M106.413361,105.147446 
	C105.135139,104.573250 103.856926,103.999054 102.281883,103.209045 
	C102.000504,102.822853 102.015945,102.652458 102.460403,102.285255 
	C107.927223,103.793251 105.307953,99.641823 105.999222,98.022339 
	C106.292122,97.903687 106.550163,97.732491 106.819618,97.279930 
	C108.307297,97.784859 109.748711,98.518608 110.222496,98.759789 
	C109.257408,100.815361 108.610664,102.192871 107.691078,103.948135 
	C107.083275,104.599731 106.748314,104.873589 106.413361,105.147446 
z"/>
<path fill="#E9E9E9" opacity="1.000000" stroke="none" 
	d="
M78.078011,71.477135 
	C75.934021,72.672882 73.794327,73.533112 71.116386,74.609726 
	C71.845566,72.951523 72.392517,71.707703 72.936928,70.119057 
	C73.425598,69.513489 73.916817,69.252747 74.836502,69.224701 
	C75.563972,69.622047 75.862976,69.786682 76.161987,69.951324 
	C76.802094,70.348083 77.442200,70.744850 78.078011,71.477135 
z"/>
<path fill="#F1F1F1" opacity="1.000000" stroke="none" 
	d="
M105.623138,97.961090 
	C105.307953,99.641823 107.927223,103.793251 102.541832,102.041885 
	C103.211853,100.630165 104.229454,99.265007 105.623138,97.961090 
z"/>
<path fill="#E9E9E9" opacity="1.000000" stroke="none" 
	d="
M78.354988,79.988052 
	C77.400978,79.187599 76.759254,78.284210 76.117531,77.380829 
	C76.734886,77.086143 77.352234,76.791451 78.001129,76.794472 
	C78.244202,78.023163 78.455742,78.954140 78.354988,79.988052 
z"/>
<path fill="#EDEDED" opacity="1.000000" stroke="none" 
	d="
M83.570480,46.677231 
	C80.899361,46.437458 80.618439,45.323112 82.943893,43.405346 
	C83.164032,44.213863 83.339241,45.272472 83.570480,46.677231 
z"/>
<path fill="#EDEDED" opacity="1.000000" stroke="none" 
	d="
M68.911209,35.546875 
	C68.670403,36.365089 68.282700,36.926159 67.895004,37.487228 
	C67.609459,36.846493 67.323914,36.205757 67.046661,35.214512 
	C67.624741,35.005909 68.194527,35.147820 68.911209,35.546875 
z"/>
<path fill="#DCDCDC" opacity="1.000000" stroke="none" 
	d="
M65.098946,49.274666 
	C65.989006,49.460991 66.987129,49.917965 67.985260,50.374939 
	C67.850143,50.715431 67.715027,51.055920 67.579910,51.396412 
	C66.826805,51.134430 66.073708,50.872452 65.176300,50.355869 
	C65.090340,49.915947 65.148674,49.730629 65.098946,49.274666 
z"/>
<path fill="#DCDCDC" opacity="1.000000" stroke="none" 
	d="
M70.824249,52.691147 
	C70.329483,52.724861 69.854080,52.420490 69.378677,52.116119 
	C69.784546,51.822365 70.190422,51.528614 70.744125,51.456184 
	C70.875839,51.902699 70.859726,52.127880 70.824249,52.691147 
z"/>
<path fill="#F0F0F0" opacity="1.000000" stroke="none" 
	d="
M56.675812,72.076485 
	C57.122639,71.984573 57.303242,71.986176 57.754539,71.998650 
	C57.486683,72.063011 56.948135,72.116501 56.675812,72.076485 
z"/>
<path fill="#F9F9F9" opacity="1.000000" stroke="none" 
	d="
M76.156227,69.582809 
	C75.862976,69.786682 75.563972,69.622047 75.133766,69.234543 
	C75.385201,69.079216 75.767838,69.146759 76.156227,69.582809 
z"/>
<path fill="#E9E9E9" opacity="1.000000" stroke="none" 
	d="
M74.555801,78.368149 
	C73.748405,78.662987 72.790329,78.662987 71.832260,78.662987 
	C71.883858,78.123650 71.935455,77.584312 71.987053,77.044975 
	C72.793076,77.387756 73.599098,77.730530 74.555801,78.368149 
z"/>
<path fill="#040404" opacity="1.000000" stroke="none" 
	d="
M106.385727,105.519577 
	C106.748314,104.873589 107.083275,104.599731 107.650772,104.293747 
	C109.473808,107.556183 109.881271,107.604042 112.343369,104.417931 
	C112.578842,104.078072 112.994225,104.015701 112.994225,104.015701 
	C114.697891,105.436378 116.401566,106.857056 118.105240,108.277725 
	C117.967873,108.516785 117.830498,108.755852 117.693130,108.994911 
	C116.372826,108.695702 115.052528,108.396492 113.593895,108.065941 
	C112.769150,113.587639 114.229034,118.343483 117.391090,122.783142 
	C111.162498,120.187149 112.500443,114.027061 110.408531,108.446655 
	C109.694092,110.679543 109.192543,112.247070 108.339188,113.951065 
	C107.444290,111.355583 106.901192,108.623642 106.385727,105.519577 
z"/>
<path fill="#131313" opacity="1.000000" stroke="none" 
	d="
M119.220184,90.600662 
	C118.753807,90.058662 118.472015,89.809395 118.403587,89.511177 
	C117.989967,87.708542 117.625153,85.894707 117.282669,84.268188 
	C121.064667,87.320908 124.829163,90.359497 127.994461,92.914436 
	C124.903137,94.188004 124.903137,94.188004 119.220184,90.600662 
z"/>
<path fill="#EBEBEB" opacity="1.000000" stroke="none" 
	d="
M112.953613,103.679039 
	C112.994225,104.015701 112.578842,104.078072 112.369072,104.067719 
	C111.590141,103.794525 111.020981,103.531685 110.451820,103.268837 
	C110.672272,102.903305 110.892723,102.537773 111.113182,102.172241 
	C111.713127,102.562286 112.313065,102.952332 112.953613,103.679039 
z"/>
<path fill="#040404" opacity="1.000000" stroke="none" 
	d="
M129.054276,140.965820 
	C129.364639,140.543839 129.982758,140.347275 130.600861,140.150726 
	C130.581497,140.531693 130.562134,140.912643 130.283783,141.431335 
	C129.803864,141.443115 129.582932,141.317169 129.054276,140.965820 
z"/>
<path fill="#EDEDED" opacity="1.000000" stroke="none" 
	d="
M75.959724,43.685822 
	C75.007072,43.369095 74.355209,43.023655 73.703354,42.678215 
	C73.761864,42.489937 73.820381,42.301659 73.878899,42.113384 
	C74.710373,42.234180 75.546852,42.333736 76.361649,42.525425 
	C76.413795,42.537693 76.298126,43.263329 75.959724,43.685822 
z"/>
<path fill="#F0F0F0" opacity="1.000000" stroke="none" 
	d="
M65.044807,56.392982 
	C65.286545,56.789280 65.284805,57.183670 65.254448,57.575848 
	C65.253586,57.586979 64.948013,57.574528 64.784523,57.573071 
	C64.788780,57.178970 64.793037,56.784870 65.044807,56.392982 
z"/>
<path fill="#EDEDED" opacity="1.000000" stroke="none" 
	d="
M78.201630,44.005814 
	C78.396332,43.875957 78.592682,43.938309 78.789024,44.000664 
	C78.593773,44.066448 78.398521,44.132236 78.201630,44.005814 
z"/>
</svg>